<svg xmlns="http://www.w3.org/2000/svg" xml:space="preserve" width="80" height="97.178"><path d="M14.227 42.752c1.01 3.947 4.084 5.462 7.864 6.45 5.67.648 7.349 5.237 9.08 8.155.47 1.285.95 3.31.172 4.389-1.826 2.532-4.289 4.264-5.836 6.617l1.077 1.816c1.575-2.988 3.77-5.217 5.472-8.12 1.16-1.976.634-4.679.248-6.142-1.073-4.084-1.866-5.186-4.213-6.835-1.98-1.39-10.017-1.852-13.864-6.33zm51.542.002c-1.01 3.947-4.084 5.462-7.865 6.45-5.67.647-7.349 5.236-9.08 8.153-.47 1.286-.95 3.311-.172 4.39 1.826 2.531 4.288 4.264 5.835 6.617L53.41 70.18c-1.575-2.988-3.77-5.218-5.472-8.12-1.159-1.976-.633-4.679-.247-6.142 1.073-4.084 1.867-5.186 4.213-6.835 1.98-1.39 10.017-1.852 13.865-6.33z" style="display:inline;fill:#e5e5e5;fill-opacity:1;stroke:none;stroke-width:.504279;stroke-linecap:round;stroke-dasharray:none;stroke-opacity:1"/><path d="M13.419 36.2 3.063 50.88l1.43 2.097.451 12.38 2.796.883 1.33 4.234c3.436 3.674 6.308 6.924 8.834 11.027l2.312 2.954 3.103 4.461c3.379 1.976 6.648 1.586 8.499 3.472 1.95 1.987 3.766 4.575 8.177 4.79v-.753c-2.84-.221-6.062-1.897-7.076-4.573l-1.812-4.781c-2.883-1.335-6.614-8.193-4.45-17.292-1.664-5.707-7.158-8.41-11.197-12.255Zm53.159.003L76.933 50.88l-1.431 2.097-.452 12.38-2.796.884-1.33 4.233c-3.437 3.674-6.309 6.923-8.835 11.027l-2.312 2.953-3.104 4.461c-3.379 1.976-6.647 1.586-8.498 3.471-1.952 1.987-3.767 4.575-8.179 4.79v-.753c2.842-.221 6.063-1.896 7.077-4.573l1.813-4.781c2.883-1.334 6.614-8.192 4.45-17.291 1.665-5.707 7.16-8.41 11.199-12.254z" style="display:inline;opacity:1;fill:#e5e5e5;fill-opacity:1;stroke:none;stroke-width:.504279;stroke-linecap:round;stroke-dasharray:none;stroke-opacity:1"/><path d="M11.404 39.578c-3.433.787-6.257-.173-7.163-6.003-1.132-9.603.646-11.511-1.228-17.86C1.668 14.884.499 6.315 0 1.59 0 1.589.518.376 1.067.133 2.05-.303 4.272.47 4.272.47c6.361 5.203 14.546 8.955 18.794 14.408 2.077 2.304 8.86.981 11.683 1.031-.608.292.088 1.174-.537 1.308-5.101 1.09-9.344 3.988-10.896 5.362-3.539 3.675-3.356 11.856-7.75 11.805l-1.758 4.802zm57.188.002c3.433.788 6.257-.172 7.163-6.002 1.133-9.603-.645-11.511 1.23-17.86C78.33 14.887 79.5 6.318 80 1.592c0 0-.518-1.212-1.067-1.456-.982-.436-3.205.337-3.205.337C69.365 5.675 61.18 9.427 56.93 14.879c-2.076 2.304-8.86.98-11.683 1.03.609.293-.087 1.175.537 1.309 5.102 1.09 9.344 3.988 10.897 5.363 3.538 3.675 3.354 11.856 7.748 11.805l1.758 4.802z" style="opacity:1;fill:#e5e5e5;fill-opacity:1;stroke:none;stroke-width:.25214;stroke-linecap:round;stroke-opacity:1"/><path d="M33.97 68.68c-1.305.863-1.188 2.635.418 3.75.388.094 1.13.354 1.506-.502.868 2.16 2.13 4.066 4.101 4.14-.027-5.54.01-5.549.002-8.785-2.176-.04-4.134.238-6.026 1.397zm12.053 0c1.306.864 1.189 2.635-.417 3.75-.389.094-1.13.354-1.507-.502-.868 2.16-2.13 4.066-4.1 4.14.027-5.54-.01-5.549-.002-8.785 2.176-.04 4.134.239 6.026 1.398z" style="display:inline;opacity:1;fill:#e5e5e5;fill-opacity:1;stroke:none;stroke-width:.25214;stroke-opacity:1"/><path d="M31.836 21.827c-5.38 3.385-8.493 8.275-9.31 13.436 1.548-2.986 5.151-5.967 8.208-7.251.039 4.756.941 17.472 1.47 21.732-2.883-2.952-8.735-4.984-12.206-7.413-2.086-1.459-1.898-4.05-1.97-6.628l-1.333.773c.153 2.357.2 4.961 1.972 6.51 3.654 3.196 9.566 4.593 11.363 6.457 2.083 2.16 4.096 6.215 5.522 9.17-1.866-8.73-3.881-27.7-3.716-36.786zm16.325 0c5.38 3.386 8.493 8.276 9.31 13.437-1.549-2.986-5.151-5.967-8.208-7.252-.04 4.757-.943 17.472-1.471 21.733 2.882-2.952 8.735-4.984 12.206-7.412 2.085-1.46 1.898-4.05 1.971-6.629l1.332.774c-.153 2.356-.2 4.96-1.972 6.51-3.654 3.195-9.567 4.592-11.364 6.455-2.083 2.16-4.097 6.215-5.523 9.17 1.867-8.729 3.884-27.7 3.72-36.785z" style="opacity:1;fill:#e5e5e5;fill-opacity:1;stroke:none;stroke-width:.504279;stroke-linecap:round;stroke-dasharray:none;stroke-opacity:1"/><path d="M39.626 15.25c-1.773.031-3.646.268-5.612.703.092 15.036-.2 29.613 4.213 45.425L40 61.344V15.251c-.125 0-.248-.002-.374 0zm.745 0c1.774.031 3.647.268 5.613.703-.093 15.036.198 29.613-4.216 45.425l-1.773-.034.003-46.093c.125 0 .248-.002.374 0z" style="opacity:1;fill:#e5e5e5;fill-opacity:1;stroke:none;stroke-width:.25214;stroke-linecap:round;stroke-opacity:1"/><path d="M21.974 28.608c-1.503 3.459-3.18 5.623-2.582 10.317.312.542.886.785 1.552 1.126-.678-3.822.38-7.225 2.044-10.321.388-2.832-.697-1.703-1.014-1.122zm36.049.001c1.502 3.46 3.18 5.624 2.582 10.318-.313.541-.886.785-1.553 1.126.678-3.822-.38-7.225-2.043-10.322-.388-2.832.697-1.703 1.014-1.122z" style="fill:#e5e5e5;fill-opacity:1;stroke:none;stroke-width:.469885;stroke-linecap:round;stroke-dasharray:none;stroke-opacity:1"/><path d="M39.997 81.524c-2.191.188.662-.352-6.91 1.018-1.539-.042-2.853-.218-4.249-.627 1.085 1.069 2.167 2.263 4.356 2.378 3.389.214 5.258.345 6.803.314zm0 0c2.19.188-.663-.352 6.909 1.019 1.539-.043 2.853-.219 4.249-.627-1.085 1.069-2.167 2.263-4.357 2.378-3.388.214-5.258.344-6.802.313z" style="opacity:1;fill:#e5e5e5;fill-opacity:1;stroke:none;stroke-width:.25214;stroke-opacity:1"/></svg>